<svg width="115" height="53" viewBox="0 0 115 53" fill="none" xmlns="http://www.w3.org/2000/svg">
<path d="M49.8859 4.4715V5.99367H51.9353C52.0829 5.99635 52.2236 6.05647 52.3276 6.16126C52.4315 6.26605 52.4906 6.40727 52.4923 6.55493V7.16395C52.4923 7.31175 52.4336 7.4535 52.3291 7.55801C52.2247 7.66252 52.083 7.72123 51.9353 7.72123H49.8859V9.80465C49.8859 10.2218 49.5494 10.51 49.0848 10.51H48.3687C47.9359 10.51 47.5835 10.2218 47.5835 9.80465V3.68654C47.5839 3.551 47.6111 3.41688 47.6636 3.29192C47.716 3.16695 47.7927 3.05362 47.8891 2.95844C47.9856 2.86327 48.0999 2.78814 48.2255 2.73739C48.3511 2.68664 48.4855 2.66127 48.6209 2.66274H52.8845C52.966 2.65972 53.0472 2.67328 53.1233 2.70261C53.1994 2.73194 53.2687 2.77643 53.3271 2.83338C53.3855 2.89032 53.4318 2.95854 53.463 3.0339C53.4943 3.10925 53.5099 3.19018 53.509 3.27176V3.86487C53.5099 3.94645 53.4943 4.02738 53.463 4.10273C53.4318 4.17809 53.3855 4.24631 53.3271 4.30326C53.2687 4.3602 53.1994 4.40469 53.1233 4.43402C53.0472 4.46335 52.966 4.47691 52.8845 4.47389L49.8859 4.4715ZM59.4465 3.2853C59.4465 2.86893 59.7981 2.58074 60.2309 2.58074H60.9517C61.3678 2.58074 61.7362 2.86893 61.7362 3.2853V7.11539C61.7362 9.47188 60.3113 10.5936 58.0367 10.5936C55.7788 10.5936 54.5457 9.47188 54.5457 7.11539V3.2853C54.5457 2.86893 54.8981 2.58074 55.3301 2.58074H56.0509C56.467 2.58074 56.8354 2.86893 56.8354 3.2853V6.87496C56.8354 8.10894 57.1536 8.67019 58.133 8.67019C59.1259 8.67019 59.4465 8.11292 59.4465 6.87496V3.2853ZM65.5152 9.80784C65.5152 10.225 65.1628 10.5132 64.7308 10.5132H64.2343C63.8015 10.5132 63.4491 10.225 63.4491 9.80784V3.34978C63.4529 3.1441 63.5373 2.94815 63.6842 2.80426C63.8312 2.66036 64.0288 2.58008 64.2343 2.58074H64.9711C65.3553 2.58074 65.5956 2.70891 65.8199 3.04487L68.6371 7.13211H68.6689V3.2853C68.6689 2.86893 69.0055 2.58074 69.4534 2.58074H69.9307C70.3795 2.58074 70.716 2.86893 70.716 3.2853V9.74813C70.716 10.1462 70.4916 10.3572 70.2386 10.4208L69.6292 10.5331C69.1009 10.6453 68.7811 10.4208 68.4931 10.0363L65.5494 5.94988H65.5176L65.5152 9.80784ZM73.3621 2.7726C74.0503 2.58074 75.1395 2.50033 75.8603 2.50033C78.1508 2.50033 80.4564 3.59021 80.4564 6.55493C80.4564 8.86365 78.547 10.5936 75.9565 10.5936C75.1236 10.5936 74.2269 10.561 73.5547 10.4973C72.9977 10.4495 72.6891 10.0992 72.6891 9.69559V3.66982C72.6912 3.46807 72.7577 3.27227 72.8787 3.11091C72.9998 2.94955 73.1691 2.83104 73.3621 2.7726ZM74.9159 4.42294V8.68612C75.3479 8.73388 75.7322 8.7506 75.9247 8.7506C77.414 8.7506 78.2788 7.7889 78.2788 6.55493C78.2788 5.48097 77.7219 4.34333 75.9565 4.34333C75.6079 4.33686 75.2595 4.36352 74.9159 4.42294ZM83.8328 3.25345C84.0572 2.77579 84.3102 2.58074 84.8902 2.58074H85.6627C86.14 2.58074 86.4312 2.75668 86.6397 3.20569L89.3304 9.27922C89.3928 9.43743 89.4255 9.60587 89.4266 9.77599C89.4266 10.0642 89.2182 10.3205 88.8498 10.4009L88.129 10.5442C87.7607 10.6239 87.3279 10.5124 87.1839 10.096L86.8155 9.10248H83.4852L83.1168 10.0323C82.9402 10.4654 82.6037 10.6414 82.1717 10.5291L81.4023 10.3373C80.925 10.225 80.8741 9.69559 81.0666 9.27922L83.8328 3.25345ZM84.1049 7.46807H86.2355L85.2267 4.76129H85.21L84.1049 7.46807ZM94.0665 8.68612C94.6584 8.68612 95.0427 8.57387 95.7157 8.22119C96.0523 8.04525 96.4684 8.06197 96.6609 8.42977L96.8996 8.8947C97.1072 9.2633 97.0118 9.60005 96.6911 9.82376C96.3705 10.0475 95.6871 10.385 94.6131 10.4973L94.3092 11.4908C94.2129 11.8093 93.8604 11.9231 93.508 11.8594L92.8715 11.7312C92.5668 11.6668 92.3942 11.4423 92.3942 11.1859C92.3972 11.0867 92.4188 10.989 92.4578 10.8977L92.6663 10.4009C90.9852 9.96865 89.8475 8.58979 89.8475 6.63533C89.8475 4.18331 91.7378 2.50033 94.0275 2.50033C95.0522 2.50033 95.8852 2.72484 96.6378 3.20569C96.9903 3.42939 97.1152 3.78207 96.8765 4.13475L96.6203 4.5328C96.4119 4.86956 96.0435 4.98181 95.6919 4.80587C95.135 4.51688 94.6831 4.38871 94.2185 4.38871C92.9686 4.38871 92.0083 5.02958 92.0083 6.50398C92.0027 7.77298 92.8357 8.68612 94.0689 8.68612H94.0665ZM100.699 3.25345C100.924 2.77579 101.177 2.58074 101.757 2.58074H102.525C103.003 2.58074 103.294 2.75668 103.502 3.20569L106.189 9.27922C106.251 9.43748 106.283 9.60592 106.284 9.77599C106.284 10.0642 106.077 10.3205 105.708 10.4009L104.988 10.545C104.619 10.6246 104.186 10.5132 104.042 10.0968L103.674 9.10328H100.343L99.9745 10.0323C99.7987 10.4654 99.4622 10.6414 99.0294 10.5291L98.2608 10.3373C97.7835 10.225 97.7326 9.69559 97.9251 9.27922L100.699 3.25345ZM100.203 0.369142C100.571 0.119373 101.007 -0.00946425 101.452 0.000541656C101.98 0.000541656 102.301 0.272812 102.685 0.272812C102.989 0.272812 103.182 0.128716 103.422 0.0642308C103.63 0.0164641 103.967 0.0323864 104.111 0.382675L104.223 0.654945C104.399 1.07131 104.255 1.29582 104.03 1.47255C103.668 1.72187 103.237 1.85058 102.797 1.84036C102.24 1.84036 101.932 1.56809 101.548 1.56809C101.243 1.56809 101.052 1.71218 100.811 1.77667C100.603 1.82443 100.267 1.80851 100.123 1.45822L100.011 1.18595C99.8178 0.785507 99.9777 0.545082 100.202 0.369142H100.203ZM100.971 7.46807H103.101L102.092 4.76129H102.076L100.971 7.46807ZM110.853 2.50033C113.11 2.50033 115 4.19923 115 6.55493C115 8.91062 113.11 10.5936 110.853 10.5936C108.578 10.5936 106.704 8.91062 106.704 6.55493C106.704 4.19923 108.576 2.50352 110.852 2.50352L110.853 2.50033ZM110.853 8.67019C111.989 8.67019 112.822 7.7889 112.822 6.55493C112.822 5.30503 111.989 4.42294 110.853 4.42294C109.699 4.42294 108.864 5.30503 108.864 6.55493C108.866 7.7889 109.698 8.67019 110.852 8.67019H110.853ZM51.7754 17.4107V22.1507C51.7754 22.5209 51.4628 22.7765 51.0785 22.7765H50.4102C50.0403 22.7765 49.7133 22.5209 49.7133 22.1507V17.4107H48.134C47.989 17.4108 47.8498 17.3542 47.7458 17.2531C47.6418 17.1521 47.5813 17.0144 47.5771 16.8693V16.3431C47.5826 16.1986 47.6436 16.0617 47.7473 15.9609C47.851 15.8601 47.9895 15.8031 48.134 15.8018H53.3547C53.4997 15.8017 53.639 15.8582 53.7429 15.9593C53.8469 16.0604 53.9074 16.1981 53.9116 16.3431V16.8693C53.9113 16.9417 53.8966 17.0133 53.8683 17.0799C53.84 17.1465 53.7987 17.2067 53.7468 17.2571C53.695 17.3076 53.6336 17.3471 53.5662 17.3735C53.4989 17.3998 53.427 17.4125 53.3547 17.4107H51.7754ZM56.8958 17.3677V18.4353H58.8164C58.8822 18.4337 58.9477 18.4454 59.0089 18.4699C59.0701 18.4944 59.1256 18.531 59.1722 18.5776C59.2188 18.6242 59.2554 18.6798 59.2799 18.741C59.3043 18.8022 59.3161 18.8678 59.3144 18.9337V19.4607C59.3174 19.5269 59.3065 19.593 59.2825 19.6548C59.2585 19.7166 59.2219 19.7727 59.1751 19.8196C59.1282 19.8665 59.0722 19.9031 59.0104 19.9271C58.9486 19.9511 58.8826 19.962 58.8164 19.9591H56.8958V21.1405H59.8976C59.9681 21.1377 60.0385 21.1493 60.1044 21.1746C60.1704 21.1999 60.2304 21.2384 60.281 21.2877C60.3316 21.337 60.3715 21.3961 60.3985 21.4614C60.4254 21.5267 60.4388 21.5969 60.4378 21.6675V22.1794C60.4388 22.2501 60.4254 22.3202 60.3985 22.3855C60.3715 22.4508 60.3316 22.5099 60.281 22.5592C60.2304 22.6085 60.1704 22.647 60.1044 22.6723C60.0385 22.6977 59.9681 22.7093 59.8976 22.7064H55.6873C55.5863 22.707 55.4862 22.6875 55.3928 22.649C55.2994 22.6106 55.2145 22.5541 55.143 22.4826C55.0715 22.4112 55.0149 22.3263 54.9765 22.2329C54.938 22.1394 54.9184 22.0393 54.9188 21.9382V16.7133C54.9184 16.5922 54.9421 16.4722 54.9885 16.3603C55.0349 16.2485 55.1032 16.147 55.1892 16.0618C55.2753 15.9767 55.3775 15.9095 55.4898 15.8643C55.6021 15.8191 55.7222 15.7968 55.8433 15.7986H59.8857C59.9562 15.7959 60.0265 15.8075 60.0924 15.8329C60.1583 15.8583 60.2183 15.8968 60.2688 15.9461C60.3193 15.9954 60.3593 16.0544 60.3863 16.1197C60.4133 16.1849 60.4268 16.255 60.4259 16.3256V16.8383C60.4268 16.9089 60.4133 16.9789 60.3863 17.0441C60.3593 17.1093 60.3193 17.1683 60.2688 17.2176C60.2182 17.2668 60.1582 17.3052 60.0923 17.3305C60.0265 17.3558 59.9561 17.3673 59.8857 17.3645L56.8958 17.3677ZM63.9081 21.0402H66.0849C66.1577 21.036 66.2306 21.0469 66.299 21.0724C66.3673 21.0978 66.4297 21.1372 66.482 21.188C66.5344 21.2388 66.5756 21.3 66.6031 21.3676C66.6306 21.4352 66.6438 21.5078 66.6418 21.5807V22.1675C66.6438 22.2404 66.6306 22.313 66.6031 22.3806C66.5756 22.4482 66.5344 22.5094 66.482 22.5602C66.4297 22.611 66.3673 22.6504 66.299 22.6758C66.2306 22.7013 66.1577 22.7122 66.0849 22.708H62.6137C62.5128 22.7084 62.4128 22.6889 62.3194 22.6504C62.2261 22.6119 62.1413 22.5554 62.0699 22.484C61.9985 22.4125 61.942 22.3277 61.9036 22.2343C61.8651 22.1409 61.8456 22.0408 61.846 21.9398V16.3559C61.846 15.9857 62.173 15.7293 62.5429 15.7293H63.2112C63.5955 15.7293 63.9081 15.9857 63.9081 16.3559V21.0402ZM69.7684 17.3677V18.4353H71.689C71.7548 18.4337 71.8203 18.4454 71.8815 18.4699C71.9427 18.4944 71.9982 18.531 72.0448 18.5776C72.0914 18.6242 72.128 18.6798 72.1525 18.741C72.1769 18.8022 72.1887 18.8678 72.187 18.9337V19.4607C72.19 19.5269 72.1791 19.593 72.1551 19.6548C72.1311 19.7166 72.0945 19.7727 72.0477 19.8196C72.0008 19.8665 71.9448 19.9031 71.883 19.9271C71.8213 19.9511 71.7552 19.962 71.689 19.9591H69.7684V21.1405H72.7742C72.8447 21.1377 72.9151 21.1493 72.981 21.1746C73.047 21.1999 73.107 21.2384 73.1576 21.2877C73.2081 21.337 73.2481 21.3961 73.2751 21.4614C73.302 21.5267 73.3154 21.5969 73.3144 21.6675V22.1794C73.3154 22.2501 73.302 22.3202 73.2751 22.3855C73.2481 22.4508 73.2081 22.5099 73.1576 22.5592C73.107 22.6085 73.047 22.647 72.981 22.6723C72.9151 22.6977 72.8447 22.7093 72.7742 22.7064H68.5576C68.4566 22.7069 68.3566 22.6873 68.2633 22.6488C68.1699 22.6104 68.0851 22.5538 68.0137 22.4824C67.9424 22.4109 67.8858 22.3261 67.8474 22.2327C67.809 22.1393 67.7894 22.0392 67.7898 21.9382V16.7133C67.7894 16.592 67.8131 16.4718 67.8597 16.3598C67.9063 16.2478 67.9748 16.1462 68.0611 16.061C68.1474 15.9758 68.2499 15.9087 68.3624 15.8636C68.475 15.8186 68.5955 15.7965 68.7167 15.7986H72.7567C72.8272 15.7959 72.8975 15.8075 72.9634 15.8329C73.0293 15.8583 73.0893 15.8968 73.1398 15.9461C73.1904 15.9954 73.2303 16.0544 73.2573 16.1197C73.2843 16.1849 73.2978 16.255 73.2969 16.3256V16.8383C73.2978 16.9089 73.2843 16.9789 73.2573 17.0441C73.2303 17.1093 73.1903 17.1683 73.1398 17.2176C73.0892 17.2668 73.0292 17.3052 72.9633 17.3305C72.8975 17.3558 72.8272 17.3673 72.7567 17.3645L69.7684 17.3677ZM76.7696 17.4107V18.7641H78.5907C78.7222 18.7657 78.8479 18.8188 78.9408 18.9119C79.0337 19.0051 79.0865 19.1309 79.088 19.2625V19.8038C79.0884 19.8693 79.0758 19.9342 79.051 19.9947C79.0261 20.0553 78.9895 20.1103 78.9433 20.1566C78.897 20.2029 78.842 20.2395 78.7815 20.2644C78.721 20.2892 78.6561 20.3018 78.5907 20.3014H76.7696V22.1523C76.7696 22.5225 76.4705 22.7781 76.0584 22.7781H75.4219C75.0376 22.7781 74.7242 22.5225 74.7242 22.1523V16.7149C74.7236 16.5942 74.7471 16.4745 74.7931 16.3629C74.8391 16.2513 74.9068 16.1499 74.9923 16.0646C75.0778 15.9794 75.1793 15.912 75.291 15.8663C75.4027 15.8207 75.5224 15.7976 75.6431 15.7986H79.4269C79.4995 15.7957 79.5719 15.8075 79.6397 15.8335C79.7075 15.8595 79.7694 15.899 79.8215 15.9496C79.8736 16.0003 79.9148 16.061 79.9427 16.1281C79.9706 16.1952 79.9846 16.2673 79.9838 16.3399V16.8662C79.9847 16.9389 79.9708 17.011 79.943 17.0782C79.9151 17.1453 79.8739 17.2061 79.8217 17.2567C79.7696 17.3074 79.7077 17.3469 79.6398 17.3728C79.5719 17.3987 79.4995 17.4106 79.4269 17.4075L76.7696 17.4107ZM84.0238 15.6593C86.0295 15.6593 87.7081 17.1679 87.7081 19.2601C87.7081 21.3522 86.0295 22.8473 84.0238 22.8473C82.0038 22.8473 80.3394 21.3522 80.3394 19.2601C80.3394 17.1679 82.003 15.6601 84.0206 15.6601L84.0238 15.6593ZM84.3508 13.0544C84.5894 13.0544 84.8202 13.2534 84.9077 13.3529L85.6905 14.1642C85.8894 14.3497 85.9038 14.7055 85.5768 14.8902L85.3063 15.0494C85.2051 15.113 85.087 15.1443 84.9677 15.1391C84.8483 15.134 84.7334 15.0927 84.638 15.0208L84.0118 14.5224L83.3857 15.0208C83.2904 15.0928 83.1754 15.1342 83.056 15.1393C82.9367 15.1444 82.8186 15.1131 82.7174 15.0494L82.4469 14.8902C82.1199 14.7055 82.1343 14.3497 82.3332 14.1642L83.116 13.3529C83.2011 13.2534 83.4287 13.0544 83.6729 13.0544H84.3508ZM84.0238 21.1389C85.0334 21.1389 85.7741 20.3563 85.7741 19.2601C85.7741 18.1495 85.0342 17.3669 84.0238 17.3669C82.9999 17.3669 82.26 18.1495 82.26 19.2601C82.2568 20.3571 82.9967 21.1397 84.0206 21.1397L84.0238 21.1389ZM90.7656 22.15C90.7656 22.5201 90.4529 22.7757 90.0687 22.7757H89.6271C89.2436 22.7757 88.9302 22.5201 88.9302 22.15V16.414C88.9335 16.2314 89.0085 16.0574 89.1388 15.9296C89.2692 15.8018 89.4446 15.7305 89.6271 15.7309H90.2771C90.6184 15.7309 90.834 15.8448 91.0313 16.1441L93.539 19.7736H93.5677V16.3559C93.5677 15.9857 93.866 15.7293 94.2646 15.7293H94.691C95.0888 15.7293 95.3888 15.9857 95.3888 16.3559V22.0918C95.3888 22.4477 95.1891 22.6332 94.9615 22.6897L94.4213 22.7892C93.9519 22.8887 93.6671 22.6897 93.4109 22.3482L90.7934 18.7187H90.7656V22.15ZM98.5027 22.7757H97.8352C97.4652 22.7757 97.1383 22.5201 97.1383 22.15V16.3559C97.1383 15.9857 97.4652 15.7293 97.8352 15.7293H98.5035C98.8878 15.7293 99.2004 15.9857 99.2004 16.3559V22.1492C99.1964 22.5209 98.8838 22.7765 98.4995 22.7765L98.5027 22.7757ZM104.193 21.1532C104.719 21.1532 105.018 21.068 105.614 20.7552C105.914 20.5959 106.284 20.6135 106.455 20.9407L106.668 21.353C106.852 21.681 106.753 21.9796 106.482 22.1786C106.141 22.4174 105.33 22.8481 103.951 22.8481C101.945 22.8481 100.438 21.439 100.438 19.3325C100.438 17.1544 102.115 15.6601 104.15 15.6601C105.06 15.6601 105.757 15.8591 106.425 16.2858C106.724 16.4856 106.838 16.7985 106.639 17.1114L106.412 17.4672C106.198 17.8088 105.855 17.8374 105.558 17.6806C105.167 17.4609 104.726 17.3435 104.278 17.3391C103.197 17.3391 102.357 17.9091 102.357 19.2187C102.354 20.3428 103.094 21.154 104.19 21.154L104.193 21.1532ZM110.039 16.328C110.238 15.9013 110.465 15.7301 110.978 15.7301H111.66C112.087 15.7301 112.343 15.8893 112.527 16.2874L114.914 21.6826C114.97 21.823 114.999 21.9726 114.999 22.1237C114.999 22.38 114.815 22.6077 114.488 22.681L113.851 22.8091C113.524 22.8808 113.14 22.7805 113.012 22.4111L112.685 21.5282H109.726L109.399 22.3538C109.24 22.7383 108.944 22.8943 108.56 22.7948L107.877 22.6244C107.451 22.5249 107.408 22.0552 107.579 21.685L110.039 16.328ZM110.277 20.0697H112.169L111.273 17.6647H111.259L110.277 20.0697ZM29.923 52.6912C29.3189 52.6917 28.7216 52.5643 28.1702 52.3174C27.6188 52.0704 27.1259 51.7094 26.724 51.2582C26.4781 50.9835 25.5465 49.8467 21.0753 44.3471L20.9814 44.2333C20.9194 44.1537 20.8557 44.0741 20.7897 43.9944C20.3823 43.4786 19.8755 42.8377 19.4022 42.8377C18.9288 42.8377 18.4355 43.4706 18.0298 43.9809C17.9598 44.0685 17.8921 44.1537 17.8261 44.2349C13.2753 49.8347 12.3238 50.9883 12.0875 51.2558H12.0915C11.3568 52.0802 10.3329 52.5895 9.23252 52.6779C8.1322 52.7662 7.04016 52.4269 6.18347 51.7303C5.90741 51.5121 4.71164 50.5576 4.31703 50.2121L4.31305 50.2169C3.45497 49.522 2.89776 48.5228 2.75742 47.4272C2.61708 46.3316 2.90442 45.2241 3.55963 44.3352C3.79671 44.0255 4.99009 42.5368 11.8457 34.0295C12.2435 33.5232 12.4774 33.0209 12.4774 32.6578C12.4774 31.8816 12.187 31.2901 10.7748 30.9279L10.3062 30.8148C4.44432 29.4049 3.34402 29.1358 3.08625 29.0634C2.02854 28.7527 1.13062 28.0471 0.578268 27.0925C0.0259125 26.1379 -0.13862 25.0074 0.118709 23.9348C0.189516 23.6347 0.584127 21.9732 0.681189 21.5927C0.93827 20.5194 1.59802 19.5862 2.52381 18.9862C3.44961 18.3863 4.57052 18.1657 5.65441 18.37C5.85728 18.4098 6.66481 18.6001 10.9665 19.6263C12.0223 19.8786 12.934 20.096 13.0502 20.1223L13.1775 20.1517C14.4759 20.4503 14.7225 20.3993 14.81 20.1613C14.9413 19.8102 14.9692 19.7274 13.915 19.0395L13.8649 19.0061C13.1663 18.565 12.5187 18.0479 11.934 17.464C9.81056 15.3384 9.05475 12.3395 9.05475 10.2417C9.05475 7.51265 10.1423 4.94041 12.117 2.9971C14.059 1.07874 16.6781 0.00309146 19.4069 0.00309146C22.1358 0.00309146 24.7549 1.07874 26.6969 2.9971C28.6716 4.93962 29.7583 7.51185 29.7583 10.2417C29.7583 12.3379 29.0033 15.3368 26.8831 17.4624C26.2956 18.0463 25.6466 18.5647 24.9474 19.0085L24.8989 19.0403C23.8415 19.729 23.8718 19.8118 24.0015 20.1605C24.0412 20.2664 24.0675 20.338 24.33 20.3539C24.6713 20.3738 25.1622 20.2608 25.6372 20.1517L25.7613 20.1231L27.8028 19.6366C32.1379 18.6017 32.9542 18.4106 33.1595 18.3708C34.2435 18.1663 35.3646 18.3868 36.2906 18.9867C37.2165 19.5867 37.8764 20.52 38.1335 21.5935L38.1422 21.6293C38.2051 21.8968 38.6458 23.7342 38.6896 23.9133L38.6952 23.9356C38.9527 25.0084 38.7882 26.1392 38.2356 27.094C37.6831 28.0488 36.7849 28.7545 35.7268 29.065V29.0602C34.8636 29.299 28.3016 30.8666 28.0359 30.9303C26.6269 31.2925 26.3373 31.8856 26.3373 32.6594C26.3373 33.0256 26.5688 33.5272 26.9738 34.0359C33.8556 42.5726 35.0259 44.0374 35.2479 44.3376C35.9034 45.2266 36.1907 46.3345 36.0499 47.4302C35.9091 48.526 35.351 49.5251 34.4921 50.2192C34.3489 50.3458 34.0855 50.56 33.566 50.9803C32.9773 51.458 32.7394 51.6507 32.6248 51.7374C31.8603 52.3587 30.9047 52.6964 29.9198 52.6936L29.923 52.6912ZM27.8314 50.2089L27.8601 50.2407C28.3331 50.7724 28.993 51.1007 29.7021 51.1574C30.4112 51.214 31.1148 50.9946 31.6662 50.5449L31.7346 50.4915C31.9788 50.2965 33.0505 49.4279 33.4053 49.1381L33.5342 49.0338C34.088 48.5858 34.4477 47.9411 34.5381 47.2342C34.6285 46.5273 34.4427 45.8128 34.0195 45.2396L34.01 45.2268C33.6917 44.8137 27.9738 37.7155 25.7772 34.9904C25.3333 34.4332 24.809 33.5781 24.809 32.6618C24.809 31.0186 25.7677 29.9391 27.658 29.4543H27.6723C28.0192 29.3747 34.8278 27.7339 35.2773 27.6137L35.2924 27.6089C35.9779 27.4097 36.5601 26.9535 36.9176 26.3353C37.2751 25.7171 37.3803 24.9846 37.2114 24.2907C37.143 24.0105 36.734 22.3155 36.6497 21.9454C36.4834 21.2523 36.057 20.6499 35.459 20.2628C34.8609 19.8757 34.137 19.7336 33.4371 19.8659H33.4244C33.1364 19.9272 30.0233 20.6692 28.1536 21.1158C27.0311 21.3833 26.2204 21.5768 26.0994 21.6046L25.9769 21.6325C25.3977 21.7662 24.7986 21.9048 24.2362 21.8713C23.4302 21.8228 22.8391 21.4032 22.5718 20.6883C21.9878 19.112 23.1398 18.3613 24.0659 17.7586L24.1176 17.7252C24.7277 17.3396 25.2936 16.8882 25.8051 16.3789C27.5967 14.5821 28.2332 11.947 28.2332 10.2377C28.2325 9.08928 28.0014 7.95265 27.5537 6.89518C27.106 5.8377 26.4508 4.88089 25.6268 4.08141C23.97 2.44253 21.7343 1.52339 19.4046 1.52339C17.0749 1.52339 14.8391 2.44253 13.1823 4.08141C12.3581 4.88076 11.7027 5.83754 11.2548 6.89503C10.807 7.95252 10.5759 9.08921 10.5751 10.2377C10.5751 12.0306 11.2116 14.5861 13.008 16.3813C13.5164 16.8895 14.08 17.3391 14.6883 17.722L14.7432 17.7578C15.6709 18.3613 16.8245 19.1112 16.2357 20.6883C15.9724 21.4048 15.3829 21.822 14.5761 21.8713C14.0144 21.904 13.4146 21.767 12.8338 21.6325L12.7073 21.6102L10.6101 21.111C8.75402 20.6676 5.66316 19.9304 5.38311 19.8715H5.37277C4.67299 19.7389 3.94906 19.8808 3.35098 20.2678C2.75291 20.6548 2.32653 21.2572 2.16019 21.9501L2.14984 21.9907C2.08301 22.2654 1.64862 24.0765 1.60407 24.2684L1.59771 24.2955C1.43157 24.9879 1.53789 25.7178 1.89466 26.334C2.25142 26.9502 2.83131 27.4055 3.51428 27.6057L3.53019 27.6105C3.72033 27.6614 5.13728 28.0085 10.6602 29.3372L11.1464 29.4543C13.0391 29.9383 13.9985 31.0178 13.9985 32.6618C13.9985 33.5718 13.4742 34.4268 13.0343 34.9841C9.86148 38.92 5.09193 44.8431 4.79836 45.2252L4.78801 45.2396C4.36504 45.8129 4.17935 46.5274 4.2696 47.2343C4.35985 47.9413 4.71908 48.5861 5.27253 49.0346L5.33936 49.0896C5.62736 49.3284 6.91701 50.3713 7.11033 50.5226L7.14216 50.5472C7.69487 50.9977 8.39993 51.2175 9.11054 51.1609C9.82115 51.1043 10.4825 50.7755 10.957 50.2431L10.9769 50.2208C11.3222 49.818 15.5245 44.6528 16.6463 43.2716C16.7091 43.192 16.7727 43.1124 16.8372 43.0327C17.414 42.3059 18.204 41.3108 19.4046 41.3108C20.6051 41.3108 21.4078 42.3139 21.987 43.0463C22.0483 43.1259 22.108 43.1999 22.166 43.2708L22.2559 43.3822C25.5011 47.3739 27.5657 49.904 27.8282 50.2113L27.8314 50.2089ZM3.58986 27.6232L3.60895 27.6312L3.58986 27.6232ZM35.2288 27.6232L35.2097 27.6312L35.2288 27.6232ZM56.5784 52.6036H58.2261C58.623 52.5838 59.0081 52.4621 59.3444 52.2503C59.6808 52.0386 59.957 51.7438 60.1466 51.3943L66.9608 39.3125C67.6586 38.0387 66.8359 36.9505 66.1079 36.679L64.2956 35.8654C63.3194 35.4299 62.1475 35.8908 61.7091 36.9107L57.4313 45.5087H57.3668L53.0945 36.9107C52.6561 35.8908 51.4842 35.4299 50.5089 35.8654L48.6973 36.679C47.9701 36.9505 47.1451 38.0324 47.8444 39.3125L54.6571 51.3943C54.8467 51.7439 55.1231 52.0387 55.4596 52.2505C55.7961 52.4623 56.1814 52.5839 56.5784 52.6036ZM86.5076 52.6036H88.1537C88.551 52.5841 88.9366 52.4626 89.2733 52.2508C89.6101 52.039 89.8867 51.7441 90.0766 51.3943L96.8884 39.3125C97.5878 38.0387 96.7643 36.9505 96.0348 36.679L94.224 35.8654C93.2494 35.4299 92.0759 35.8908 91.6384 36.9107L87.3597 45.5087H87.2968L83.0229 36.9107C82.583 35.8908 81.4127 35.4299 80.4373 35.8654L78.6273 36.679C77.897 36.9505 77.0735 38.0324 77.7737 39.3125L84.5847 51.3943C84.7745 51.7441 85.0511 52.0391 85.3879 52.2509C85.7247 52.4627 86.1103 52.5842 86.5076 52.6036ZM106.498 35.7595C104.816 35.7595 103.172 36.2585 101.774 37.1933C100.376 38.1282 99.2863 39.4569 98.6429 41.0115C97.9995 42.5661 97.8312 44.2767 98.1594 45.927C98.4875 47.5773 99.2974 49.0931 100.487 50.2828C101.676 51.4725 103.191 52.2826 104.84 52.6107C106.489 52.9388 108.199 52.7701 109.752 52.1259C111.306 51.4818 112.633 50.3912 113.567 48.9919C114.501 47.5927 115 45.9478 114.999 44.2651C114.999 42.0092 114.103 39.8459 112.508 38.2509C110.914 36.6558 108.752 35.7597 106.498 35.7595ZM106.498 47.6215C105.834 47.6214 105.186 47.4244 104.634 47.0555C104.082 46.6866 103.653 46.1623 103.399 45.5489C103.145 44.9355 103.078 44.2606 103.208 43.6095C103.337 42.9583 103.657 42.3602 104.126 41.8907C104.595 41.4212 105.192 41.1014 105.843 40.9718C106.494 40.8421 107.168 40.9084 107.781 41.1623C108.394 41.4162 108.918 41.8462 109.287 42.3981C109.656 42.95 109.853 43.5988 109.853 44.2627C109.854 44.704 109.767 45.1411 109.599 45.5489C109.431 45.9567 109.183 46.3273 108.872 46.6395C108.56 46.9517 108.19 47.1993 107.783 47.3682C107.375 47.5371 106.939 47.624 106.498 47.6239V47.6215ZM72.3621 27.581C71.7031 27.581 71.0589 27.7766 70.5109 28.1429C69.963 28.5093 69.536 29.03 69.2838 29.6392C69.0316 30.2485 68.9656 30.9188 69.0942 31.5656C69.2227 32.2123 69.5401 32.8064 70.006 33.2727C70.472 33.739 71.0657 34.0565 71.712 34.1852C72.3584 34.3138 73.0283 34.2478 73.6371 33.9955C74.246 33.7431 74.7663 33.3158 75.1325 32.7675C75.4986 32.2192 75.694 31.5746 75.694 30.9151C75.6941 30.4773 75.608 30.0437 75.4406 29.6391C75.2732 29.2345 75.0277 28.867 74.7183 28.5573C74.4089 28.2477 74.0416 28.0021 73.6373 27.8346C73.233 27.6671 72.7996 27.5809 72.3621 27.581ZM69.4621 50.5441C69.4616 50.8143 69.5144 51.082 69.6175 51.3319C69.7205 51.5817 69.8719 51.8087 70.0628 51.9999C70.2537 52.191 70.4804 52.3426 70.73 52.446C70.9796 52.5493 71.2471 52.6023 71.5171 52.602H73.2348C73.505 52.6022 73.7725 52.5491 74.0221 52.4458C74.2717 52.3424 74.4985 52.1909 74.6895 51.9997C74.8805 51.8086 75.032 51.5816 75.1353 51.3318C75.2386 51.0821 75.2916 50.8144 75.2914 50.5441V37.9918C75.2902 37.4469 75.0729 36.9249 74.6873 36.5402C74.3017 36.1556 73.7793 35.9398 73.2348 35.9402H71.5171C71.2472 35.9398 70.9799 35.9927 70.7304 36.0958C70.481 36.1989 70.2543 36.3503 70.0634 36.5413C69.8725 36.7322 69.7211 36.959 69.618 37.2086C69.5148 37.4582 69.4618 37.7257 69.4621 37.9958V50.5441Z" fill="#660099"/>
</svg>
